<svg width="106" height="94" viewBox="0 0 106 94" fill="none" xmlns="http://www.w3.org/2000/svg">
<path d="M88.3333 18.625H92.9403L89.7926 31.1695L89.6491 31.7411L90.0797 32.1435C92.8909 34.7706 95.1844 37.9642 96.7478 41.5269L97.0103 42.125H97.6635H100.111C102.818 42.125 105 44.3049 105 47V64.625C105 67.3201 102.818 69.5 100.111 69.5H94.2222H93.7238L93.4237 69.898C91.8056 72.0445 89.8849 73.9607 87.7332 75.5751L87.3333 75.8751V76.375V88.125C87.3333 90.8201 85.1517 93 82.4444 93H76.5556C73.8483 93 71.6667 90.8201 71.6667 88.125V82.25V81.25H70.6667H47.1111H46.1111V82.25V88.125C46.1111 90.8201 43.9295 93 41.2222 93H35.3333C32.6261 93 30.4444 90.8201 30.4444 88.125V76.375V75.8746L30.0439 75.5746C23.8372 70.9261 19.6086 63.8146 18.8091 55.7143L18.72 54.8125H17.8139H12.5139C6.1445 54.8125 1 49.6767 1 43.3281C1 36.9795 6.1445 31.8438 12.5139 31.8438H13.25C15.1475 31.8438 16.6667 33.3627 16.6667 35.25C16.6667 37.1373 15.1475 38.6562 13.25 38.6562H12.5139C9.93953 38.6562 7.83333 40.7541 7.83333 43.3281C7.83333 45.9022 9.93953 48 12.5139 48H18.2556H19.0731L19.2356 47.1988C21.3856 36.5983 29.4915 28.1362 39.9101 25.4224L39.9123 25.4218C42.203 24.8195 44.6203 24.5 47.1111 24.5H70.6667C71.2899 24.5 71.9123 24.5177 72.5158 24.553C73.2714 24.6069 74.0176 24.6782 74.7582 24.7837L75.3002 24.861L75.6573 24.446C78.7149 20.893 83.264 18.625 88.3333 18.625ZM39.2785 17.4712C39.3613 8.36597 46.7925 1 55.9444 1C64.8308 1 72.0948 7.94464 72.5848 16.683C71.9543 16.6477 71.3157 16.625 70.6667 16.625H47.1111C44.422 16.625 41.8029 16.9192 39.2785 17.4712ZM83.4444 48.4688C83.4444 47.0342 82.8732 45.6588 81.8571 44.6451C80.8411 43.6315 79.4636 43.0625 78.0278 43.0625C76.5919 43.0625 75.2145 43.6315 74.1985 44.6451C73.1824 45.6588 72.6111 47.0342 72.6111 48.4688C72.6111 49.9033 73.1824 51.2787 74.1985 52.2924C75.2145 53.306 76.5919 53.875 78.0278 53.875C79.4636 53.875 80.8411 53.306 81.8571 52.2924C82.8732 51.2787 83.4444 49.9033 83.4444 48.4688Z" fill="url(#paint0_linear_2160_295)" stroke="url(#paint1_linear_2160_295)" stroke-width="2"/>
<defs>
<linearGradient id="paint0_linear_2160_295" x1="53" y1="0" x2="110.863" y2="115.67" gradientUnits="userSpaceOnUse">
<stop offset="0.0729167" stop-color="#E4CA71"/>
<stop offset="0.244792" stop-color="#E7D285"/>
<stop offset="0.442708" stop-color="#EBDD9F"/>
<stop offset="0.703125" stop-color="#94803E"/>
<stop offset="0.875" stop-color="#AA9444"/>
</linearGradient>
<linearGradient id="paint1_linear_2160_295" x1="89.7386" y1="9.03846" x2="16.2144" y2="111.441" gradientUnits="userSpaceOnUse">
<stop offset="0.0729167" stop-color="#E4CA71"/>
<stop offset="0.244792" stop-color="#E7D285"/>
<stop offset="0.442708" stop-color="#EBDD9F"/>
<stop offset="0.703125" stop-color="#94803E"/>
<stop offset="0.875" stop-color="#AA9444"/>
</linearGradient>
</defs>
</svg>
