<svg width="12" height="21" viewBox="0 0 12 21" fill="none" xmlns="http://www.w3.org/2000/svg">
<path d="M11.4671 20.4475C11.636 20.2735 11.77 20.0668 11.8615 19.8393C11.9529 19.6118 12 19.3679 12 19.1216C12 18.8753 11.9529 18.6314 11.8615 18.4038C11.77 18.1763 11.636 17.9697 11.4671 17.7957L4.39633 10.4984L11.4671 3.20107C11.8078 2.84941 11.9992 2.37246 11.9992 1.87514C11.9992 1.37782 11.8078 0.900871 11.4671 0.549215C11.1263 0.197557 10.6642 1.79057e-06 10.1823 1.74844e-06C9.70043 1.70631e-06 9.23828 0.197557 8.89754 0.549215L0.532934 9.18184C0.363996 9.35583 0.229966 9.56251 0.138517 9.79003C0.0470686 10.0175 -9.68555e-07 10.2614 -9.90088e-07 10.5078C-1.01162e-06 10.7541 0.0470685 10.998 0.138517 11.2255C0.229966 11.453 0.363995 11.6597 0.532934 11.8337L8.89754 20.4663C9.59004 21.181 10.7563 21.181 11.4671 20.4475Z" fill="#FFC657"/>
</svg>
