<svg width="95" height="94" viewBox="0 0 95 94" fill="none" xmlns="http://www.w3.org/2000/svg">
<path fill-rule="evenodd" clip-rule="evenodd" d="M85.5 0C88.0196 0 90.4359 0.990354 92.2175 2.7532C93.9991 4.51604 95 6.90697 95 9.4V78.3333C95 80.8264 93.9991 83.2173 92.2175 84.9801C90.4359 86.743 88.0196 87.7333 85.5 87.7333H82.3333V94H76V87.7333H19V94H12.6667V87.7333H9.5C6.98044 87.7333 4.56408 86.743 2.78248 84.9801C1.00089 83.2173 0 80.8264 0 78.3333V9.4C0 6.90697 1.00089 4.51604 2.78248 2.7532C4.56408 0.990354 6.98044 0 9.5 0L85.5 0ZM82.3333 18.8V37.6H76V18.8H82.3333ZM34.8333 31.3333C39.0326 31.3333 43.0599 32.9839 46.0292 35.922C48.9985 38.8601 50.6667 42.8449 50.6667 47C50.6667 51.1551 48.9985 55.1399 46.0292 58.078C43.0599 61.0161 39.0326 62.6667 34.8333 62.6667C30.6341 62.6667 26.6068 61.0161 23.6375 58.078C20.6682 55.1399 19 51.1551 19 47C19 42.8449 20.6682 38.8601 23.6375 35.922C26.6068 32.9839 30.6341 31.3333 34.8333 31.3333ZM82.3333 68.9333V50.1333H76V68.9333H82.3333Z" fill="#FFD989"/>
</svg>
