<svg width="24" height="20" viewBox="0 0 24 20" fill="none" xmlns="http://www.w3.org/2000/svg">
<path d="M23.5642 2.4436C21.5158 2.29829 21.3704 1.15454 19.0501 1.15454C16.5892 1.15454 16.5751 2.4436 14.1423 2.45767C11.6298 2.47173 11.6439 1.15454 9.15486 1.15454C6.90486 1.15454 6.7033 2.23267 4.82361 2.42954C4.25174 2.49048 3.54393 2.47173 2.94861 2.31704C1.24236 4.21079 0.159554 6.67642 0.0142417 9.3952C0.0142417 9.4186 0.0142417 9.4045 0.00955417 9.503C-0.0513833 10.9092 0.140804 12.2874 0.576742 13.6045C0.576742 13.6092 0.614242 13.717 0.618929 13.7264C1.31268 15.7467 2.55018 17.5139 4.16268 18.8499C4.32205 18.8499 4.47205 18.8452 4.65017 18.8358C6.69392 18.6905 6.83924 17.5467 9.15955 17.5467C11.7142 17.5467 11.6439 18.9342 14.3251 18.8499C16.5798 18.7749 16.6548 17.5514 19.0548 17.5514C21.347 17.5514 21.5158 18.6717 23.4939 18.8358C23.7704 18.8592 24.0048 18.6389 24.0048 18.367C24.0048 16.3327 24.0048 4.30923 24.0048 2.92642C24.0001 2.6686 23.8126 2.45767 23.5642 2.4436Z" fill="#295781"/>
<path d="M7.93611 15.3295V3.65767C7.93611 2.42954 8.84549 1.40298 10.022 1.21548C9.76892 1.17798 9.48767 1.15454 9.15955 1.15454C6.90955 1.15454 6.70799 2.23267 4.8283 2.42954C4.25643 2.49048 3.54861 2.47173 2.9533 2.31704C1.24236 4.21079 0.159554 6.67642 0.0142417 9.3952C0.0142417 9.4186 0.0142417 9.4045 0.00955417 9.503C-0.0513833 10.9092 0.140804 12.2874 0.576742 13.6045C0.576742 13.6092 0.614242 13.717 0.618929 13.7264C1.31268 15.7467 2.55018 17.5139 4.16268 18.8499C4.32205 18.8499 4.47205 18.8452 4.65017 18.8358C6.69392 18.6905 6.83924 17.5467 9.15955 17.5467C9.2158 17.5467 9.26736 17.5467 9.31892 17.5467C8.49861 17.1389 7.93611 16.2952 7.93611 15.3295Z" fill="#1B3D6E"/>
<path d="M25.8891 8.439V11.5C25.6687 11.4296 25.4437 11.3687 25.2234 11.3078C24.8953 11.2187 24.5766 11.1437 24.2531 11.0828C24.0234 11.0312 23.7984 10.989 23.5734 10.9609C23.3484 10.9187 23.1234 10.8906 22.8984 10.8671C22.6031 10.825 22.3031 10.8015 22.0031 10.7781C21.9141 10.7687 21.825 10.764 21.7359 10.764C21.675 10.7593 21.6094 10.7593 21.5438 10.7546C21.5109 10.7546 21.4828 10.75 21.4453 10.75C21.3516 10.7453 21.2578 10.7406 21.1594 10.7406C20.9484 10.7359 20.7422 10.7359 20.5359 10.7359C20.3813 10.7359 20.2266 10.7359 20.0719 10.7406C19.95 10.7406 19.8328 10.7453 19.7109 10.75H19.6734C19.6078 10.75 19.5375 10.7546 19.4672 10.7593C19.2562 10.764 19.05 10.7734 18.8391 10.7968C18.7875 10.7968 18.7406 10.7968 18.6891 10.8062C18.5156 10.8156 18.3422 10.8296 18.1641 10.8484C18.0141 10.8625 17.8687 10.8718 17.7188 10.8953C17.5219 10.9093 17.3203 10.9328 17.1234 10.9609C16.7578 11.0031 16.3828 11.0546 16.0172 11.1109C15.7734 11.1437 15.5203 11.1812 15.2766 11.2234H15.2625C14.8875 11.2796 14.5125 11.3406 14.1375 11.4062V19.1687L13.6266 19.2625C12.9469 19.3796 11.8687 18.9578 11.1891 19.075L11.0719 18.0765V11.9453C10.6969 12.0109 10.3219 12.0718 9.94687 12.1281C8.75625 12.3156 7.56563 12.475 6.375 12.55C3.99844 12.7656 1.60781 12.5265 -0.679688 11.8468V8.7812C1.60313 9.4609 3.99375 9.7 6.36563 9.4843C7.56094 9.4093 8.75156 9.25 9.94687 9.0625C10.3219 9.0062 10.6969 8.9453 11.0719 8.8796L10.9312 0.957764L11.6672 1.60933C12.3469 1.49214 12.9516 2.42026 13.6312 2.30308L14.1422 2.20933V8.3406C14.5172 8.275 14.8922 8.214 15.2672 8.1578C15.2672 8.1531 15.2719 8.1531 15.2766 8.1531L15.2812 8.1578C15.5672 8.1062 15.8531 8.064 16.1391 8.0265C16.4391 7.98433 16.7437 7.94683 17.0438 7.90933H17.0484H17.0531C17.6437 7.83901 18.2391 7.77808 18.8344 7.73589C18.9844 7.72651 19.125 7.71714 19.2703 7.71245C19.4109 7.69839 19.5562 7.68901 19.7016 7.6937C19.7062 7.68901 19.7062 7.68901 19.7109 7.6937C19.7812 7.68901 19.8609 7.68901 19.9313 7.68901C20.2922 7.67495 20.6578 7.67495 21.0187 7.68433H21.1547C21.2297 7.68433 21.3047 7.68901 21.3797 7.6937C21.4969 7.6937 21.6141 7.69839 21.7313 7.70776C21.9234 7.71714 22.1203 7.7312 22.3125 7.74995C22.5047 7.76401 22.7016 7.78745 22.8937 7.81089C23.0859 7.83433 23.2828 7.85776 23.475 7.88589C23.6484 7.90933 23.8219 7.93745 23.9953 7.97495C24.075 7.98901 24.1641 8.0078 24.2484 8.0265C24.375 8.05 24.5109 8.0781 24.6375 8.1062C24.8297 8.1484 25.0266 8.2 25.2188 8.2468C25.4438 8.3031 25.6687 8.364 25.8891 8.439Z" fill="#E6E7E7"/>
<path d="M25.8891 8.9687V10.9374L25.3782 10.8249L25.3641 10.8203C24.9845 10.7171 24.661 10.6421 24.3516 10.5859C24.122 10.5343 23.8829 10.4874 23.6438 10.4593C23.4282 10.4171 23.1891 10.389 22.9501 10.3609C22.6641 10.3234 22.3548 10.2953 22.0454 10.2718C21.9469 10.2624 21.8438 10.2578 21.7454 10.2578L21.586 10.2484C21.5204 10.2437 21.4876 10.2437 21.4548 10.2437C21.3845 10.239 21.2766 10.2343 21.1688 10.2343C20.972 10.2296 20.7563 10.2296 20.5454 10.2296C20.386 10.2296 20.222 10.2296 20.0673 10.2343H20.0579C19.9548 10.2343 19.8423 10.239 19.7251 10.2437C19.6079 10.2484 19.5188 10.2484 19.4438 10.2531C19.247 10.2578 19.0266 10.2671 18.8016 10.2906H18.7782C18.7313 10.2906 18.6891 10.2953 18.647 10.3046C18.497 10.3093 18.3516 10.3234 18.2016 10.3374L17.9813 10.3562C17.8735 10.3656 17.7704 10.3749 17.6626 10.3937C17.4845 10.4031 17.2688 10.4312 17.0579 10.4593C16.7063 10.5015 16.3219 10.5531 15.9516 10.6093C15.722 10.6421 15.4782 10.6749 15.2345 10.7171L15.1923 10.7218C14.8126 10.7781 14.4329 10.839 14.0532 10.9093L13.636 10.9796V19.2624C12.9563 19.3796 12.2579 18.5593 11.5782 18.6765L11.5923 11.3406L10.9876 11.4484C10.622 11.5093 10.247 11.5703 9.88135 11.6265C8.49385 11.8468 7.36885 11.9781 6.35635 12.0437C5.76572 12.0859 5.18447 12.1046 4.64541 12.1046C3.02353 12.1234 1.40635 11.9078 -0.15459 11.4718L-0.665527 11.3171V9.2968L-0.15459 9.4656C1.41103 9.8781 3.01885 10.0796 4.63603 10.0609C5.20322 10.0609 5.79853 10.0421 6.4126 9.9999C7.47197 9.9296 8.58759 9.8031 10.0407 9.5687C10.4157 9.5124 10.7954 9.4515 11.1751 9.3812L11.5923 9.3109L11.4516 0.868692C12.1313 0.751512 12.9563 2.42026 13.636 2.30307V8.9499L14.2407 8.8421C14.5266 8.7906 14.822 8.7437 15.1126 8.7015H15.1173C15.1173 8.7015 15.436 8.6499 15.4595 8.6499L15.7829 8.5984V8.5937C15.9188 8.5749 16.0595 8.5515 16.1954 8.5374C16.4298 8.4999 16.8751 8.4437 16.8751 8.4437L17.1188 8.4109C17.7845 8.3359 18.3423 8.2796 18.8766 8.2421C19.0266 8.2328 19.1579 8.2234 19.2938 8.2187C19.3641 8.2093 19.4345 8.2046 19.5048 8.2046L19.5141 8.214L19.7298 8.1999H19.9079L19.9126 8.1953H19.9313C20.147 8.1859 20.3391 8.1859 20.5266 8.1859C20.686 8.1859 20.8454 8.1859 21.0001 8.1906H21.1548C21.211 8.1906 21.2673 8.1953 21.3235 8.1999H21.3798C21.4829 8.1999 21.586 8.2046 21.6891 8.214C21.8954 8.2234 22.0829 8.2374 22.2704 8.2562C22.4579 8.2703 22.6454 8.289 22.8282 8.3124C23.0298 8.3312 23.2126 8.3593 23.3954 8.3874C23.5782 8.4203 23.7329 8.4343 23.897 8.4671C24.0048 8.4859 24.0704 8.4999 24.136 8.514L24.2157 8.5328L24.5204 8.5937C24.7126 8.6359 24.8954 8.6874 25.0735 8.7296C25.0735 8.7296 25.3032 8.7906 25.3735 8.8093L25.8891 8.9687Z" fill="#E54D3C"/>
<path d="M25.8892 15.5733V16.6093C25.908 16.8952 25.7533 17.1624 25.4955 17.2937C25.2798 17.1108 25.0736 17.2562 24.8627 17.078C24.8673 17.0312 24.8673 16.6608 24.8673 16.6093V15.5733C22.7767 13.7124 20.4517 12.1327 17.958 10.8671C18.0283 10.8624 18.1033 10.853 18.1736 10.8483C18.3517 10.8343 18.5252 10.8155 18.6986 10.8061C18.7455 10.7968 18.797 10.7921 18.8486 10.7968C21.3939 12.0718 23.7611 13.6796 25.8892 15.5733Z" fill="#E6E7E7"/>
<path d="M24.8673 15.5734V16.6093C24.8673 16.6609 24.8673 17.0312 24.8626 17.0781C21.6658 14.4578 17.8502 12.5968 14.6533 11.2515C14.897 11.2093 15.7783 11.139 16.022 11.1109C16.3877 11.0546 16.7627 11.0031 17.1283 10.9609C17.3299 10.9421 17.5267 10.914 17.7236 10.8953C17.7986 10.8859 17.8783 10.8765 17.9533 10.8718C20.4564 12.1328 22.7767 13.7125 24.8673 15.5734Z" fill="#E54D3C"/>
<path d="M24.867 15.5734V16.6093C24.867 16.6609 24.867 16.8765 24.8624 16.9234C22.1061 14.5562 19.0076 12.6156 15.6748 11.1671C15.9186 11.125 15.778 11.1437 16.0217 11.1109C16.3873 11.0546 16.7623 11.0031 17.128 10.9609C17.3295 10.9421 17.5264 10.914 17.7233 10.8953C17.7983 10.8859 17.878 10.8765 17.953 10.8718C20.4561 12.1328 22.7764 13.7125 24.867 15.5734Z" fill="#E54D3C"/>
<path d="M11.0767 7.46855V8.8842C10.7017 8.9498 10.3267 9.0107 9.95176 9.067C6.41269 7.58106 5.18457 7.23418 1.64551 4.0748C1.93144 3.6248 1.95019 3.17949 2.52207 3.15137L2.33457 3.05762C4.90801 4.70762 8.22207 6.37637 11.0767 7.46855Z" fill="#E6E7E7"/>
<path d="M9.44062 8.8468C9.60938 8.9218 9.78281 8.9968 9.95156 9.0671C8.75625 9.2546 7.56562 9.414 6.37031 9.489C3.825 8.214 2.87813 7.80151 0.75 5.90776L1.64062 4.07495" fill="#E6E7E7"/>
<path d="M9.69385 8.889C8.84072 9.0109 7.73447 9.0671 6.88603 9.1234C4.33603 7.8437 3.12666 7.02339 0.998535 5.12964L1.64072 4.07495C5.30635 6.4937 6.49228 7.52026 9.69385 8.889Z" fill="#E54D3C"/>
<path d="M2.92041 17.6547C5.63916 16.3141 6.38916 14.1766 9.10322 12.1375L10.5657 12.025C10.7345 12.0063 10.9079 11.9734 11.0766 11.9453V13.3609C8.52666 15.3719 6.44541 16.8016 3.57197 18.325" fill="#E6E7E7"/>
<path d="M10.3127 12.7702C7.88926 14.8562 5.87832 16.2671 3.09863 17.8421C2.18926 17.7718 2.48457 16.9374 2.27832 16.8577C3.72207 16.0515 5.55488 14.8046 8.97207 12.2968C9.17832 12.264 10.8752 12.114 11.0767 12.0718L10.3127 12.7702Z" fill="#E54D3C"/>
<path d="M25.8889 3.32969V4.36563C23.3764 5.11094 20.9951 6.24531 18.8342 7.72656V7.73125C18.2436 7.76875 17.6436 7.82969 17.0529 7.90469H17.0483H17.0436C16.7436 7.9375 16.4389 7.975 16.1389 8.0219C15.8529 8.0641 15.567 8.1016 15.2811 8.1531L15.2764 8.1484C18.6842 5.64063 22.092 3.4 25.4951 2.40625C25.7389 2.65469 25.8795 2.98281 25.8889 3.32969Z" fill="#E6E7E7"/>
<path d="M25.4952 2.41094C22.0874 3.4 18.6796 5.64531 15.2765 8.1531C15.2718 8.1531 15.2671 8.15309 15.2671 8.15779C15.0609 8.19059 14.8593 8.21879 14.653 8.26089C14.4843 8.27969 14.3109 8.3125 14.1421 8.3406V6.925C16.8655 4.88594 19.5843 2.9453 22.303 1.60938C23.1655 1.67968 24.0234 1.82031 24.8671 2.02188C25.0546 2.07344 25.228 2.16249 25.3734 2.29374H25.3781C25.4202 2.33124 25.4624 2.36875 25.4952 2.41094Z" fill="#E6E7E7"/>
<path d="M14.1846 7.8251C15.9284 6.39072 20.0909 3.21729 22.8143 1.88135C23.5503 1.94229 24.2815 2.06885 24.994 2.26104C25.0362 2.30322 24.9565 2.21885 24.994 2.26104C21.7878 3.93447 20.1987 5.01729 16.7909 7.52979L14.1846 7.8251Z" fill="#E54D3C"/>
<path d="M2.27324 16.8623L1.28418 15.2311C3.59981 13.8904 4.21856 14.0404 6.37949 12.5592V12.5545C7.42949 12.4279 8.47481 12.2451 9.51074 12.0107L5.56856 14.842L2.27324 16.8623Z" fill="#E6E7E7"/>
<path d="M25.4952 17.2938C25.2984 17.3828 25.078 17.4016 24.8671 17.3453C24.0234 17.1391 23.1655 17.0031 22.303 16.9328C19.7296 15.2875 16.9921 13.9094 14.1421 12.8219V11.4062C14.5171 11.3406 14.3952 11.2844 14.7702 11.2281L14.8968 11.1953C18.6374 12.8453 22.1906 14.8891 25.4952 17.2938Z" fill="#E6E7E7"/>
</svg>
