<svg width="24" height="24" viewBox="0 0 24 24" fill="none" xmlns="http://www.w3.org/2000/svg">
<g clip-path="url(#clip0_1182_35)">
<mask id="mask0_1182_35" style="mask-type:luminance" maskUnits="userSpaceOnUse" x="0" y="0" width="24" height="24">
<path d="M24 0H0V24H24V0Z" fill="white"/>
</mask>
<g mask="url(#mask0_1182_35)">
<path d="M23.5633 4.4436C21.5149 4.29829 21.3696 3.15454 19.0492 3.15454C16.5883 3.15454 16.5742 4.4436 14.1414 4.45767C11.6289 4.47173 11.643 3.15454 9.15389 3.15454C6.90389 3.15454 6.70233 4.23267 4.82264 4.42954C4.25077 4.49048 3.54296 4.47173 2.94764 4.31704C1.24139 6.21079 0.158578 8.67642 0.0132651 11.3952C0.0132651 11.4186 0.0132651 11.4045 0.0085776 11.503C-0.0523599 12.9092 0.139828 14.2874 0.575765 15.6045C0.575765 15.6092 0.613265 15.717 0.617953 15.7264C1.31171 17.7467 2.54921 19.5139 4.16171 20.8499C4.32108 20.8499 4.47108 20.8452 4.64921 20.8358C6.69296 20.6905 6.83827 19.5467 9.15858 19.5467C11.7133 19.5467 11.643 20.9342 14.3242 20.8499C16.5789 20.7749 16.6539 19.5514 19.0539 19.5514C21.3461 19.5514 21.5149 20.6717 23.493 20.8358C23.7696 20.8592 24.0039 20.6389 24.0039 20.367C24.0039 18.3327 24.0039 6.30923 24.0039 4.92642C23.9992 4.6686 23.8117 4.45767 23.5633 4.4436Z" fill="#EBF0F2"/>
<path d="M7.93514 17.3295V5.65767C7.93514 4.42954 8.84452 3.40298 10.0211 3.21548C9.76796 3.17798 9.48671 3.15454 9.15858 3.15454C6.90858 3.15454 6.70702 4.23267 4.82733 4.42954C4.25546 4.49048 3.54764 4.47173 2.95233 4.31704C1.24139 6.21079 0.158578 8.67642 0.0132651 11.3952C0.0132651 11.4186 0.0132651 11.4045 0.0085776 11.503C-0.0523599 12.9092 0.139828 14.2874 0.575765 15.6045C0.575765 15.6092 0.613265 15.717 0.617953 15.7264C1.31171 17.7467 2.54921 19.5139 4.16171 20.8499C4.32108 20.8499 4.47108 20.8452 4.64921 20.8358C6.69296 20.6905 6.83827 19.5467 9.15858 19.5467C9.21483 19.5467 9.26639 19.5467 9.31796 19.5467C8.49764 19.1389 7.93514 18.2952 7.93514 17.3295Z" fill="#C2D4E6"/>
<path d="M15.1219 11.2453C14.7891 10.5328 14.0672 10.0359 13.2328 10.0359C12.0844 10.0359 11.1469 10.9734 11.1469 12.1218C11.1469 13.2187 10.2562 14.1093 9.15937 14.1093C8.08125 14.1093 7.2 13.2421 7.17188 12.1734H7.125C7.15313 14.4 8.9625 16.1953 11.1984 16.1953C13.4484 16.1953 15.2719 14.3718 15.2719 12.1218C15.2719 11.8218 15.2391 11.5265 15.1781 11.2453H15.1219Z" fill="#113B6E"/>
<path d="M4.50905 17.8732L2.81218 15.4545C2.70905 15.3045 2.74187 15.0982 2.89187 14.9904C3.04186 14.8873 3.24811 14.9201 3.35593 15.0701L5.0528 17.4935C5.15592 17.6435 5.12311 17.8498 4.97311 17.9576C4.82311 18.0607 4.61686 18.0232 4.50905 17.8732Z" fill="#404051"/>
<path d="M6.50613 16.4765L4.80926 14.0531C4.70613 13.9031 4.73894 13.6968 4.88894 13.589C5.03894 13.4859 5.24519 13.5187 5.35301 13.6687L7.04988 16.0922C7.15301 16.2422 7.1202 16.4484 6.9702 16.5562C6.81551 16.664 6.60926 16.6265 6.50613 16.4765Z" fill="#404051"/>
<path d="M5.50759 17.1749L4.9826 16.4249C4.87947 16.2749 4.91228 16.0687 5.06228 15.9609C5.21228 15.8577 5.41853 15.8906 5.52634 16.0406L6.05134 16.7906C6.15447 16.9406 6.12166 17.1468 5.97166 17.2546C5.82166 17.3624 5.61072 17.3249 5.50759 17.1749Z" fill="#404051"/>
<path d="M4.33571 15.5062L3.81071 14.7562C3.70759 14.6062 3.7404 14.4 3.8904 14.2922C4.0404 14.189 4.24665 14.2218 4.35446 14.3719L4.87946 15.1219C4.98258 15.2719 4.94977 15.4781 4.79977 15.5859C4.64977 15.6937 4.44352 15.6562 4.33571 15.5062Z" fill="#404051"/>
<path d="M2.89782 9.25308C2.74782 9.14996 2.71032 8.93902 2.81813 8.78902L4.51501 6.36559C4.61813 6.21559 4.82907 6.17809 4.97907 6.2859C5.12907 6.39372 5.16657 6.59997 5.05876 6.74996L3.36188 9.1734C3.25407 9.31871 3.04782 9.35621 2.89782 9.25308Z" fill="#404051"/>
<path d="M4.88903 10.6498C4.73903 10.5467 4.70153 10.3358 4.80934 10.1858L6.50622 7.76232C6.60934 7.61232 6.82028 7.57482 6.97028 7.68263C7.12028 7.79044 7.15778 7.99669 7.04997 8.14669L5.35309 10.5701C5.24528 10.7154 5.03903 10.7529 4.88903 10.6498Z" fill="#404051"/>
<path d="M3.89049 9.95158C3.74049 9.84846 3.70299 9.63752 3.8108 9.48752L5.50767 7.06408C5.6108 6.91408 5.82173 6.87658 5.97173 6.98439C6.12173 7.0922 6.15923 7.29845 6.05142 7.44845L4.35455 9.8719C4.25142 10.0172 4.04049 10.0547 3.89049 9.95158Z" fill="#404051"/>
<path d="M16.4154 17.2593C16.2654 17.1562 16.2279 16.9453 16.3357 16.7953L16.8607 16.0453C16.9638 15.8953 17.1747 15.8578 17.3247 15.9656C17.4747 16.0687 17.5122 16.2797 17.4044 16.4297L16.8794 17.1796C16.7716 17.325 16.5654 17.3625 16.4154 17.2593Z" fill="#404051"/>
<path d="M17.5829 15.5858C17.4329 15.4826 17.3954 15.2717 17.5032 15.1217L18.0282 14.3717C18.1313 14.2217 18.3423 14.1842 18.4923 14.292C18.6423 14.3951 18.6798 14.6061 18.5719 14.7561L18.0469 15.5061C17.9438 15.6561 17.7376 15.6936 17.5829 15.5858Z" fill="#404051"/>
<path d="M15.4169 16.5609C15.2669 16.4577 15.2294 16.2468 15.3372 16.0968L15.8622 15.3468C15.9654 15.1968 16.1763 15.1593 16.3263 15.2671C16.4763 15.3702 16.5138 15.5812 16.406 15.7312L15.881 16.4812C15.7732 16.6265 15.5669 16.664 15.4169 16.5609Z" fill="#404051"/>
<path d="M16.5887 14.8875C16.4387 14.7844 16.4012 14.5735 16.509 14.4235L17.034 13.6735C17.1371 13.5235 17.3481 13.486 17.4981 13.5938C17.6481 13.6969 17.6856 13.9078 17.5778 14.0578L17.0528 14.8078C16.945 14.9578 16.7387 14.9953 16.5887 14.8875Z" fill="#404051"/>
<path d="M17.4139 17.9578C17.2639 17.8547 17.2264 17.6438 17.3342 17.4938L17.8592 16.7438C17.9623 16.5938 18.1733 16.5563 18.3233 16.6641C18.4733 16.7672 18.5108 16.9781 18.4029 17.1281L17.8779 17.8781C17.7701 18.0235 17.5639 18.061 17.4139 17.9578Z" fill="#404051"/>
<path d="M18.5809 16.2845C18.4309 16.1814 18.3934 15.9704 18.5012 15.8204L19.0262 15.0704C19.1293 14.9204 19.3403 14.8829 19.4903 14.9907C19.6403 15.0939 19.6778 15.3048 19.57 15.4548L19.045 16.2048C18.9418 16.3548 18.7309 16.3923 18.5809 16.2845Z" fill="#404051"/>
<path d="M19.0261 9.16883L18.5011 8.41882C18.398 8.26882 18.4308 8.06257 18.5808 7.95476C18.7308 7.85163 18.9371 7.88445 19.0449 8.03445L19.5699 8.78445C19.673 8.93445 19.6402 9.1407 19.4902 9.24851C19.3402 9.35633 19.1339 9.31883 19.0261 9.16883Z" fill="#404051"/>
<path d="M17.8591 7.50086L17.3341 6.75085C17.231 6.60085 17.2638 6.3946 17.4138 6.28679C17.5638 6.18367 17.77 6.21648 17.8778 6.36648L18.4028 7.11648C18.506 7.26648 18.4732 7.47273 18.3232 7.58054C18.1685 7.68836 17.9622 7.65086 17.8591 7.50086Z" fill="#404051"/>
<path d="M17.0339 10.5656L16.5089 9.81555C16.4058 9.66555 16.4386 9.4593 16.5886 9.35149C16.7386 9.24836 16.9449 9.28118 17.0527 9.43118L17.5777 10.1812C17.6808 10.3312 17.648 10.5374 17.498 10.6452C17.3433 10.7531 17.1371 10.7156 17.0339 10.5656Z" fill="#404051"/>
<path d="M15.8621 8.89685L15.3371 8.14685C15.2339 7.99685 15.2668 7.7906 15.4168 7.68279C15.5668 7.57966 15.773 7.61247 15.8808 7.76247L16.4058 8.51247C16.5089 8.66247 16.4761 8.86872 16.3261 8.97654C16.1761 9.08435 15.9652 9.04685 15.8621 8.89685Z" fill="#404051"/>
<path d="M18.0281 9.86716L16.3312 7.44372C16.2281 7.29372 16.2609 7.08747 16.4109 6.97966C16.5609 6.87654 16.7672 6.90935 16.875 7.05935L18.5719 9.48279C18.675 9.63279 18.6422 9.83904 18.4922 9.94685C18.3422 10.0547 18.1359 10.0172 18.0281 9.86716Z" fill="#404051"/>
<path d="M14.4655 14.5406C11.953 14.6578 11.353 13.4062 11.2217 12.6562C11.203 12.5578 11.1701 12.464 11.1233 12.3796C10.9967 13.3546 10.1623 14.1046 9.15449 14.1046C8.07637 14.1046 7.19512 13.2374 7.16699 12.1687H7.12012C7.14824 14.3953 8.95762 16.1906 11.1936 16.1906C12.5342 16.1953 13.7248 15.5437 14.4655 14.5406Z" fill="#285680"/>
<path d="M7.12012 12.122C7.12012 9.87203 8.94356 8.04858 11.1936 8.04858C13.4436 8.04858 15.267 9.87203 15.267 12.122C15.267 10.997 14.353 10.0877 13.2326 10.0877C12.1076 10.0877 11.1983 11.0017 11.1983 12.122C11.1983 13.247 10.2889 14.1564 9.16387 14.1564C8.02949 14.1564 7.12012 13.247 7.12012 12.122Z" fill="#FF4848"/>
<path d="M11.1605 12.4593C11.0621 12.225 10.8652 12.0421 10.6215 11.9578C8.03398 11.0296 9.13554 8.6062 9.13554 8.6062C7.92617 9.31401 7.11523 10.6218 7.11523 12.1218C7.11523 13.2468 8.02929 14.1562 9.14961 14.1562C10.1621 14.1562 11.0011 13.425 11.1605 12.4593Z" fill="#DC2624"/>
</g>
</g>
<defs>
<clipPath id="clip0_1182_35">
<rect width="24" height="24" fill="white"/>
</clipPath>
</defs>
</svg>
