<svg width="106" height="94" viewBox="0 0 106 94" fill="none" xmlns="http://www.w3.org/2000/svg">
<path d="M47.6281 63.2895L48.5486 62.8986L47.6281 63.2895C48.0716 64.3338 48.8208 65.2223 49.7771 65.8457C50.7332 66.4688 51.8547 66.8 53 66.8C54.5352 66.8 56.0123 66.2053 57.1052 65.1392C58.199 64.0723 58.8182 62.6199 58.8182 61.1C58.8182 59.967 58.4736 58.8616 57.8312 57.9237C57.1889 56.9861 56.2787 56.259 55.2185 55.8306C54.1584 55.4023 52.9933 55.2906 51.8695 55.5086C50.7456 55.7267 49.71 56.2655 48.8948 57.0608C48.0793 57.8562 47.521 58.8728 47.2946 59.9833C47.0681 61.0939 47.1846 62.2449 47.6281 63.2895ZM51.565 36.3057L51.5441 36.2967L51.5229 36.2887C51.0542 36.1114 50.6273 35.8465 50.2661 35.5103L39.2437 24.9462C39.2427 24.9452 39.2417 24.9442 39.2407 24.9432C38.4999 24.219 38.0886 23.2431 38.0886 22.231C38.0886 21.2175 38.5011 20.2403 39.2437 19.5158C39.9872 18.7906 41.0008 18.3788 42.0627 18.3788C43.1175 18.3788 44.1246 18.7851 44.8667 19.5013L47.4526 22.2572L49.1818 24.1003V21.573V4.7C49.1818 3.72683 49.5779 2.78834 50.2913 2.09243C51.0056 1.3957 51.9795 1 53 1C54.0205 1 54.9944 1.3957 55.7087 2.09243C56.4221 2.78834 56.8182 3.72683 56.8182 4.7V21.573V24.1003L58.5474 22.2572L61.1333 19.5013C61.8754 18.7851 62.8825 18.3788 63.9373 18.3788C64.9992 18.3788 66.0128 18.7906 66.7563 19.5158C67.4989 20.2403 67.9115 21.2175 67.9115 22.231C67.9115 23.2433 67.5 24.2193 66.759 24.9435C66.7581 24.9444 66.7572 24.9453 66.7563 24.9462L55.7384 35.5061C55.7369 35.5075 55.7354 35.5089 55.7339 35.5103C55.3727 35.8465 54.9459 36.1114 54.4771 36.2887L54.4559 36.2967L54.435 36.3057C53.9838 36.5002 53.495 36.6011 53 36.6011C52.505 36.6011 52.0162 36.5002 51.565 36.3057ZM10.3493 83.9392L11.0476 83.2234L10.3493 83.9392C11.4422 85.0053 12.9194 85.6 14.4545 85.6H91.5455C93.0806 85.6 94.5578 85.0053 95.6507 83.9392C96.7445 82.8723 97.3636 81.4199 97.3636 79.9V42.3C97.3636 40.7801 96.7445 39.3277 95.6507 38.2608C94.5578 37.1947 93.0806 36.6 91.5455 36.6H77.0909C76.0704 36.6 75.0965 36.2043 74.3822 35.5076C73.6688 34.8117 73.2727 33.8732 73.2727 32.9C73.2727 31.9268 73.6688 30.9883 74.3822 30.2924C75.0965 29.5957 76.0704 29.2 77.0909 29.2H91.5455C95.1217 29.2 98.5467 30.5861 101.068 33.0456C103.589 35.5044 105 38.8338 105 42.3V79.9C105 83.3662 103.589 86.6956 101.068 89.1544C98.5467 91.6139 95.1217 93 91.5455 93H14.4545C10.8783 93 7.45333 91.6139 4.93191 89.1544L4.23364 89.8702L4.93191 89.1544C2.41134 86.6956 1 83.3662 1 79.9V42.3C1 38.8338 2.41134 35.5044 4.93191 33.0456C7.45333 30.5861 10.8783 29.2 14.4545 29.2H28.9091C29.9296 29.2 30.9035 29.5957 31.6178 30.2924C32.3312 30.9883 32.7273 31.9268 32.7273 32.9C32.7273 33.8732 32.3312 34.8117 31.6178 35.5076C30.9035 36.2043 29.9296 36.6 28.9091 36.6H14.4545C12.9194 36.6 11.4422 37.1947 10.3493 38.2608C9.25554 39.3277 8.63636 40.7801 8.63636 42.3V79.9C8.63636 81.4199 9.25554 82.8723 10.3493 83.9392ZM22.6217 64.5151L22.2471 65.4422L22.6217 64.5151C21.9211 64.232 21.3264 63.7543 20.9097 63.1461C20.4934 62.5382 20.2727 61.8262 20.2727 61.1C20.2727 60.1268 20.6688 59.1883 21.3822 58.4924C22.0965 57.7957 23.0704 57.4 24.0909 57.4C24.8515 57.4 25.5931 57.6201 26.2217 58.0298C26.8501 58.4394 27.336 59.0189 27.6219 59.6922C27.9077 60.3653 27.982 61.1043 27.8367 61.8171C27.6913 62.5301 27.3318 63.1884 26.7996 63.7076C26.2672 64.227 25.5858 64.5834 24.8404 64.728C24.0949 64.8726 23.3225 64.7982 22.6217 64.5151ZM45.5155 50.214C47.7288 48.7714 50.3335 48 53 48C56.5763 48 60.0012 49.3861 62.5226 51.8456C65.0432 54.3044 66.4545 57.6338 66.4545 61.1C66.4545 63.6853 65.6688 66.2147 64.1935 68.3684C62.718 70.5224 60.6183 72.205 58.1569 73.1995C55.6953 74.1941 52.9853 74.4547 50.3705 73.9474C47.7559 73.44 45.3575 72.1884 43.4774 70.3544C41.5975 68.5206 40.3202 66.1873 39.803 63.651C39.2859 61.1148 39.5511 58.4857 40.5662 56.095C41.5815 53.7041 43.3025 51.6565 45.5155 50.214ZM85.0903 59.0539C85.5067 59.6618 85.7273 60.3738 85.7273 61.1C85.7273 62.0732 85.3312 63.0117 84.6178 63.7076C83.9035 64.4043 82.9296 64.8 81.9091 64.8C81.1485 64.8 80.4069 64.5799 79.7783 64.1701C79.1499 63.7606 78.664 63.1811 78.3781 62.5078C78.0923 61.8347 78.018 61.0956 78.1633 60.3829C78.3087 59.6699 78.6682 59.0116 79.2004 58.4924C79.7328 57.973 80.4142 57.6166 81.1596 57.472C81.9051 57.3273 82.6775 57.4018 83.3783 57.6849C84.0789 57.968 84.6737 58.4457 85.0903 59.0539Z" fill="url(#paint0_linear_2160_531)" stroke="url(#paint1_linear_2160_531)" stroke-width="2"/>
<defs>
<linearGradient id="paint0_linear_2160_531" x1="53" y1="0" x2="110.863" y2="115.67" gradientUnits="userSpaceOnUse">
<stop offset="0.0729167" stop-color="#E4CA71"/>
<stop offset="0.244792" stop-color="#E7D285"/>
<stop offset="0.442708" stop-color="#EBDD9F"/>
<stop offset="0.703125" stop-color="#94803E"/>
<stop offset="0.875" stop-color="#AA9444"/>
</linearGradient>
<linearGradient id="paint1_linear_2160_531" x1="89.7386" y1="9.03846" x2="16.2144" y2="111.441" gradientUnits="userSpaceOnUse">
<stop offset="0.0729167" stop-color="#E4CA71"/>
<stop offset="0.244792" stop-color="#E7D285"/>
<stop offset="0.442708" stop-color="#EBDD9F"/>
<stop offset="0.703125" stop-color="#94803E"/>
<stop offset="0.875" stop-color="#AA9444"/>
</linearGradient>
</defs>
</svg>
