<svg width="88" height="94" viewBox="0 0 88 94" fill="none" xmlns="http://www.w3.org/2000/svg">
<path d="M84.2879 64.3255L84.2888 64.3265C84.447 64.5015 84.6273 64.7023 84.811 64.907C85.0145 65.1337 85.2222 65.3651 85.4088 65.5712C86.26 66.5136 86.7899 67.6495 86.9491 68.8416C87.1083 70.0335 86.8924 71.2456 86.3199 72.3374L86.3191 72.339C85.0963 74.6813 82.4759 76.208 79.377 76.208H8.64935C5.53134 76.208 2.89376 74.6771 1.67665 72.3271L1.67509 72.3242C1.10516 71.2328 0.891254 70.0217 1.05183 68.8312C1.21249 67.6402 1.74332 66.5056 2.59493 65.5646L2.60115 65.5576C2.93086 65.1863 3.2553 64.8278 3.57809 64.4711C3.62364 64.4208 3.66916 64.3705 3.71466 64.3202L3.71489 64.32L3.75449 64.2761C6.25016 61.5157 8.37787 59.1622 9.83624 55.4759C11.2955 51.7873 12.0581 46.8446 12.0581 38.8904C12.0581 31.8603 13.5937 26.1444 16.639 21.6097C19.682 17.0783 24.2913 13.6388 30.5945 11.261L30.6472 11.2411L30.6973 11.2154C30.8613 11.1315 31.0128 11.021 31.1439 10.8861L31.3057 10.7197L31.3777 10.4991C33.2417 4.78517 38.3189 1 44.0006 1C49.6822 1 54.7616 4.78511 56.6256 10.5051L56.6944 10.716L56.8459 10.8781C56.9805 11.0222 57.1384 11.1393 57.31 11.2267L57.3595 11.2519L57.4114 11.2715C62.8172 13.3096 66.8579 16.0429 69.8304 19.6044L69.831 19.6051C73.857 24.4198 75.9453 30.8883 75.9453 38.8967C75.9453 46.848 76.7091 51.7891 78.1689 55.4776C79.6256 59.1582 81.7491 61.5117 84.2375 64.2697L84.2879 64.3255ZM59.102 84.9286C57.6335 87.3149 55.5047 89.3218 52.9146 90.7413C50.2257 92.215 47.1452 92.9975 44.0007 93C40.8565 92.9972 37.7764 92.2145 35.0878 90.7408C32.4982 89.3213 30.3697 87.3146 28.9014 84.9286H59.102Z" fill="url(#paint0_linear_2170_893)" stroke="url(#paint1_linear_2170_893)" stroke-width="2"/>
<defs>
<linearGradient id="paint0_linear_2170_893" x1="44" y1="0" x2="107.929" y2="106.094" gradientUnits="userSpaceOnUse">
<stop offset="0.0729167" stop-color="#E4CA71"/>
<stop offset="0.244792" stop-color="#E7D285"/>
<stop offset="0.442708" stop-color="#EBDD9F"/>
<stop offset="0.703125" stop-color="#94803E"/>
<stop offset="0.875" stop-color="#AA9444"/>
</linearGradient>
<linearGradient id="paint1_linear_2170_893" x1="74.5" y1="9.03846" x2="-2.28532" y2="97.8223" gradientUnits="userSpaceOnUse">
<stop offset="0.0729167" stop-color="#E4CA71"/>
<stop offset="0.244792" stop-color="#E7D285"/>
<stop offset="0.442708" stop-color="#EBDD9F"/>
<stop offset="0.703125" stop-color="#94803E"/>
<stop offset="0.875" stop-color="#AA9444"/>
</linearGradient>
</defs>
</svg>
