<svg xmlns="http://www.w3.org/2000/svg" xmlns:xlink="http://www.w3.org/1999/xlink" width="40" height="40" viewBox="0 0 40 40">
  <defs>
    <style>
      .cls-1, .cls-3 {
        fill: url(#linear-gradient);
      }

      .cls-2 {
        clip-path: url(#clip-path);
      }

      .cls-3 {
        fill-rule: evenodd;
      }
    </style>
    <linearGradient id="linear-gradient" x1="0.5" x2="0.5" y2="1" gradientUnits="objectBoundingBox">
      <stop offset="0" stop-color="#fff48e"/>
      <stop offset="0.49" stop-color="#b7945a"/>
      <stop offset="1" stop-color="#6f4d1c"/>
    </linearGradient>
    <clipPath id="clip-path">
      <rect id="사각형_26" data-name="사각형 26" class="cls-1" width="40" height="40" transform="translate(450 1184)"/>
    </clipPath>
  </defs>
  <g id="마스크_그룹_1" data-name="마스크 그룹 1" class="cls-2" transform="translate(-450 -1184)">
    <path id="telegram-svgrepo-com" class="cls-3" d="M11.38,27.566a1.467,1.467,0,0,0,.26.062l.36.847c.348.821.817,1.932,1.3,3.09.988,2.363,1.984,4.8,2.2,5.5a5.838,5.838,0,0,0,.874,1.848,2.23,2.23,0,0,0,.57.524,1.731,1.731,0,0,0,.35.167l.016.006a2.318,2.318,0,0,0,1.562.018,2.581,2.581,0,0,0,.458-.206c.056-.032.1-.063.142-.088l.009-.006,5.557-3.466,6.419,4.921a1.477,1.477,0,0,0,.307.181,4.123,4.123,0,0,0,2.22.358,3.4,3.4,0,0,0,1.673-.722,3.979,3.979,0,0,0,1.052-1.312c.023-.047.042-.087.056-.12l.018-.043L36.8,39.1l0-.007v-.006a1.487,1.487,0,0,0,.077-.261l5.86-29.544A1.479,1.479,0,0,0,42.766,9a2.505,2.505,0,0,0-1.092-2.187,2.958,2.958,0,0,0-1.846-.41,5.69,5.69,0,0,0-1.265.259c-.16.051-.3.1-.392.138l-.119.047-.022.009L5.166,19.748l0,0-.08.03c-.064.025-.149.06-.248.1a4.959,4.959,0,0,0-.746.417,2.7,2.7,0,0,0-1.3,2.527A3.1,3.1,0,0,0,4.14,24.934a4.564,4.564,0,0,0,.668.39c.081.039.25.107.323.137l.018.007ZM39.18,9.572l0,0-.05.02L6.222,22.5l-.052.019-.018.007c-.021.008-.056.023-.1.043l-.078.037c.037.021.072.039.1.054l.066.029,6.179,2.08a1.475,1.475,0,0,1,.315.149l20.4-11.944.019-.011.058-.033c.046-.026.11-.061.186-.1a4.035,4.035,0,0,1,.624-.258,2.126,2.126,0,0,1,1.268-.028,1.68,1.68,0,0,1,.947.762,1.742,1.742,0,0,1,.209.593,1.652,1.652,0,0,1,0,.835,2.743,2.743,0,0,1-.859,1.283c-.3.276-4.121,3.964-7.894,7.606l-5.137,4.957-.914.883L33.1,38.316a1.054,1.054,0,0,0,.494.08.45.45,0,0,0,.229-.1.974.974,0,0,0,.2-.235l0,0L39.709,9.4c-.084.02-.17.044-.252.071s-.17.058-.221.078l-.053.021ZM22.542,33.941l-2.3-1.766-.558,3.55Zm-4.417-5.27,2.291-2.211L25.554,21.5l1.912-1.845-12.82,7.5.069.162c.349.824.821,1.94,1.307,3.1.364.871.745,1.788,1.091,2.637l.557-3.54A1.468,1.468,0,0,1,18.126,28.671Z" transform="translate(447.233 1180.13)"/>
  </g>
</svg>
